<svg viewBox="0 0 400 400" xmlns="http://www.w3.org/2000/svg">
  <circle cx="200" cy="220" r="175" fill="#FFE500"/>

  <!-- LEFT BROW - flat, skeptical -->
  <path d="M42 142 Q95 124 142 136" stroke="#111" stroke-width="19" fill="none" stroke-linecap="round"/>
  <!-- RIGHT BROW - raised WAY up = flex -->
  <path d="M258 102 Q305 72 358 106" stroke="#111" stroke-width="19" fill="none" stroke-linecap="round"/>

  <!-- LEFT LENS -->
  <rect x="38" y="156" width="130" height="78" rx="14" fill="#111"/>
  <rect x="46" y="164" width="114" height="62" rx="10" fill="#0a0a0a"/>
  <path d="M56 174 L78 202" stroke="#fff" stroke-width="7" stroke-linecap="round" opacity="0.13"/>

  <!-- RIGHT LENS -->
  <rect x="232" y="156" width="130" height="78" rx="14" fill="#111"/>
  <rect x="240" y="164" width="114" height="62" rx="10" fill="#0a0a0a"/>
  <path d="M250 174 L272 202" stroke="#fff" stroke-width="7" stroke-linecap="round" opacity="0.13"/>

  <!-- BRIDGE -->
  <rect x="168" y="178" width="64" height="14" rx="7" fill="#111"/>

  <!-- ARMS -->
  <line x1="38" y1="195" x2="8" y2="183" stroke="#111" stroke-width="10" stroke-linecap="round"/>
  <line x1="362" y1="195" x2="392" y2="183" stroke="#111" stroke-width="10" stroke-linecap="round"/>

  <!-- SMIRK - one side only, right side up -->
  <path d="M118 302 Q172 348 242 322" stroke="#111" stroke-width="12" fill="none" stroke-linecap="round"/>

  <!-- Cheeks -->
  <ellipse cx="60" cy="280" rx="28" ry="18" fill="#ff9900" opacity="0.22"/>
  <ellipse cx="340" cy="280" rx="28" ry="18" fill="#ff9900" opacity="0.22"/>
</svg>
